<?xml version="1.0" encoding="utf-8"?>
<!-- Generator: Adobe Illustrator 16.0.0, SVG Export Plug-In . SVG Version: 6.00 Build 0)  -->
<!DOCTYPE svg PUBLIC "-//W3C//DTD SVG 1.1//EN" "http://www.w3.org/Graphics/SVG/1.1/DTD/svg11.dtd">
<svg version="1.1" id="圖層_1" xmlns="http://www.w3.org/2000/svg" xmlns:xlink="http://www.w3.org/1999/xlink" x="0px" y="0px"
	 width="24px" height="24px" viewBox="0 0 24 24" enable-background="new 0 0 24 24" xml:space="preserve">
<g id="Sharp">
	<g id="ui_x5F_spec_x5F_header_copy_2">
	</g>
	<path fill="#FFFFFF" d="M17,6c-3.311,0-6,2.69-6,6c0,3.311,2.689,6,6,6s6-2.689,6-6C23,8.69,20.311,6,17,6z M5,8
		c-2.21,0-4,1.79-4,4s1.79,4,4,4s4-1.79,4-4S7.21,8,5,8z M5,14c-1.1,0-2-0.9-2-2c0-1.1,0.9-2,2-2s2,0.9,2,2C7,13.1,6.1,14,5,14z"/>
</g>
</svg>
