<?xml version="1.0" encoding="utf-8"?>
<!-- Generator: Adobe Illustrator 16.0.0, SVG Export Plug-In . SVG Version: 6.00 Build 0)  -->
<!DOCTYPE svg PUBLIC "-//W3C//DTD SVG 1.1//EN" "http://www.w3.org/Graphics/SVG/1.1/DTD/svg11.dtd">
<svg version="1.1" id="圖層_1" xmlns="http://www.w3.org/2000/svg" xmlns:xlink="http://www.w3.org/1999/xlink" x="0px" y="0px"
	 width="24px" height="24px" viewBox="0 0 24 24" enable-background="new 0 0 24 24" xml:space="preserve">
<g id="Sharp">
	<g id="ui_x5F_spec_x5F_header_copy_4" display="none">
	</g>
	<path fill="#FFFFFF" d="M19.439,12.99l-0.01,0.02c0.041-0.33,0.08-0.67,0.08-1.01s-0.029-0.66-0.07-0.99l0.011,0.021l2.44-1.92
		L19.46,4.89l-2.87,1.16l0.01,0.01c-0.52-0.4-1.09-0.74-1.709-1h0.01L14.439,2H9.57L9.13,5.07h0.01c-0.62,0.26-1.19,0.6-1.71,1
		l0.01-0.01L4.56,4.89L2.12,9.11l2.44,1.92l0.01-0.021C4.53,11.34,4.5,11.66,4.5,12s0.03,0.68,0.08,1.01l-0.01-0.02l-2.1,1.65
		C2.28,14.79,2.14,14.9,2.14,14.9L4.57,19.1l2.88-1.149l-0.02-0.04c0.53,0.41,1.1,0.75,1.73,1.01H9.13L9.58,22h4.85
		c0,0,0.03-0.18,0.061-0.42l0.38-2.65h-0.011c0.621-0.26,1.201-0.6,1.73-1.01l-0.02,0.04l2.88,1.149l2.43-4.199
		c0,0-0.14-0.12-0.33-0.26L19.439,12.99z M12,15.5c-1.93,0-3.5-1.57-3.5-3.5c0-1.93,1.57-3.5,3.5-3.5c1.93,0,3.5,1.57,3.5,3.5
		C15.5,13.93,13.93,15.5,12,15.5z"/>
</g>
</svg>
