<?xml version="1.0" encoding="utf-8"?>
<!-- Generator: Adobe Illustrator 16.0.0, SVG Export Plug-In . SVG Version: 6.00 Build 0)  -->
<!DOCTYPE svg PUBLIC "-//W3C//DTD SVG 1.1//EN" "http://www.w3.org/Graphics/SVG/1.1/DTD/svg11.dtd">
<svg version="1.1" id="圖層_1" xmlns="http://www.w3.org/2000/svg" xmlns:xlink="http://www.w3.org/1999/xlink" x="0px" y="0px"
	 width="24px" height="24px" viewBox="0 0 24 24" enable-background="new 0 0 24 24" xml:space="preserve">
<g id="Header_x2F_BG" display="none">
	<rect x="-226" y="-182" display="inline" fill="#F1F1F2" width="520" height="520"/>
</g>
<g id="Rounded" display="none">
	<g id="ui_x5F_spec_x5F_header_copy_5" display="inline">
	</g>
	<path display="inline" d="M12.09,2.91C10.08,0.9,7.07,0.49,4.65,1.67L8.28,5.3c0.39,0.39,0.39,1.02,0,1.41L6.69,8.3
		c-0.39,0.4-1.02,0.4-1.41,0L1.65,4.67C0.48,7.1,0.89,10.09,2.9,12.1c1.86,1.86,4.58,2.35,6.89,1.48l7.96,7.96
		c1.029,1.03,2.689,1.03,3.71,0l0,0c1.03-1.03,1.03-2.69,0-3.71L13.54,9.9C14.46,7.56,13.98,4.8,12.09,2.91z"/>
</g>
<g id="Sharp">
	<g id="ui_x5F_spec_x5F_header_copy_4">
	</g>
	<path fill="#FFFFFF" d="M12.09,2.91C10.08,0.9,7.07,0.49,4.65,1.67l4.34,4.34l-3,3L1.65,4.67C0.48,7.1,0.89,10.09,2.9,12.1
		c1.86,1.86,4.58,2.35,6.89,1.48l9.819,9.82l3.711-3.711L13.54,9.9C14.46,7.56,13.98,4.8,12.09,2.91z"/>
</g>
<g id="Outline" display="none">
	<g id="ui_x5F_spec_x5F_header" display="inline">
	</g>
	<g display="inline">
		<path d="M22.609,18.99l-9.08-9.08c0.931-2.34,0.451-5.1-1.439-7c-2.3-2.3-5.88-2.51-8.43-0.65L7.5,6.11L6.08,7.52L2.25,3.69
			C0.39,6.23,0.6,9.82,2.9,12.11c1.86,1.86,4.57,2.35,6.89,1.48l9.11,9.11c0.39,0.39,1.02,0.39,1.41,0l2.299-2.3
			C23.01,20.02,23.01,19.391,22.609,18.99z M19.609,20.59l-9.459-9.46c-0.61,0.45-1.29,0.72-2,0.82c-1.36,0.2-2.79-0.21-3.83-1.25
			C3.37,9.76,2.93,8.5,3,7.26l3.09,3.09l4.24-4.24L7.24,3.02c1.24-0.07,2.49,0.37,3.44,1.31c1.08,1.08,1.49,2.57,1.24,3.96
			C11.8,9,11.5,9.66,11.04,10.25l9.45,9.45L19.609,20.59z"/>
	</g>
</g>
<g id="Duotone" display="none">
	<g id="ui_x5F_spec_x5F_header_copy_2" display="inline">
	</g>
	<g display="inline">
		<path opacity="0.3" enable-background="new    " d="M11.92,8.28c0.24-1.4-0.16-2.89-1.24-3.96C9.74,3.37,8.48,2.93,7.24,3
			l3.09,3.09l-4.24,4.24L3,7.24c-0.07,1.24,0.37,2.49,1.31,3.44c1.04,1.04,2.47,1.45,3.83,1.25c0.71-0.1,1.4-0.38,2-0.82l9.459,9.46
			l0.881-0.881L11.03,10.24C11.5,9.64,11.8,8.98,11.92,8.28z"/>
		<path d="M22.609,18.97L13.54,9.9c0.931-2.34,0.45-5.1-1.44-7C9.8,0.6,6.22,0.39,3.67,2.25L7.5,6.08L6.08,7.5L2.25,3.67
			C0.39,6.21,0.6,9.79,2.9,12.09c1.86,1.86,4.57,2.35,6.89,1.48l9.11,9.109c0.39,0.391,1.02,0.391,1.41,0l2.299-2.3
			C23.01,20,23.01,19.359,22.609,18.97z M19.609,20.57l-9.459-9.46c-0.61,0.45-1.29,0.72-2,0.82c-1.36,0.2-2.79-0.21-3.83-1.25
			C3.37,9.74,2.93,8.48,3,7.24l3.09,3.09l4.24-4.24L7.24,3c1.24-0.07,2.49,0.37,3.44,1.31c1.08,1.08,1.49,2.57,1.24,3.96
			c-0.12,0.7-0.42,1.36-0.88,1.95l9.45,9.45L19.609,20.57z"/>
	</g>
</g>
<g id="Fill" display="none">
	<g id="ui_x5F_spec_x5F_header_copy" display="inline">
	</g>
	<path display="inline" d="M12.09,2.91C10.08,0.9,7.07,0.49,4.65,1.67l4.34,4.34l-3,3L1.65,4.67C0.48,7.1,0.89,10.09,2.9,12.1
		c1.86,1.86,4.58,2.35,6.89,1.48l9.11,9.109c0.39,0.391,1.02,0.391,1.41,0l2.299-2.299C23,20,23,19.37,22.609,18.98L13.54,9.9
		C14.46,7.56,13.98,4.8,12.09,2.91z"/>
</g>
<g id="nyt_x5F_exporter_x5F_info" display="none">
</g>
</svg>
